<svg width="72" height="72" viewBox="0 0 72 72" fill="none" xmlns="http://www.w3.org/2000/svg">
<style type="text/css">
.color {fill: var(--ion-color-base);}
</style>
<rect width="72" height="72" rx="36" fill="#F9FAFA"/>
<path d="M36.0716 49.9809C34.4634 49.9809 33.1268 48.6564 33.1268 47.0627C33.1268 45.469 34.4634 44.1445 36.0716 44.1445C37.6798 44.1445 39.0164 45.469 38.9512 47.1381C39.0272 48.6564 37.6146 49.9809 36.0716 49.9809ZM38.7556 31.115C38.6252 33.3763 38.4839 35.6269 38.3535 37.8882C38.2883 38.6204 38.2883 39.2881 38.2883 40.0095C38.2231 41.2048 37.2778 42.1309 36.0716 42.1309C34.8655 42.1309 33.9309 41.2694 33.8549 40.0741C33.6593 36.5529 33.4528 33.0963 33.2572 29.5751C33.192 28.6491 33.1268 27.7122 33.0508 26.7862C33.0508 25.2571 33.9201 23.9972 35.3327 23.5988C36.7453 23.265 38.1471 23.9326 38.7556 25.2571C38.962 25.7201 39.0272 26.1832 39.0272 26.7216C38.962 28.1968 38.8208 29.6613 38.7556 31.115Z" class="color"/>
</svg>
