<svg width="28" height="28" viewBox="0 0 28 28" fill="none" xmlns="http://www.w3.org/2000/svg">
<circle cx="14" cy="14" r="14" fill="white"/>
<path d="M8 14.579C8 15.4001 8.53053 16.0948 9.26316 16.3601V18.3685H8.63158C8.28277 18.3685 8 18.6512 8 19.0001C8 19.3489 8.28277 19.6316 8.63158 19.6316H11.1579C11.5067 19.6316 11.7895 19.3489 11.7895 19.0001C11.7895 18.6512 11.5067 18.3685 11.1579 18.3685H10.5263V16.3601C11.2589 16.0948 11.7895 15.4001 11.7895 14.579V10.5264C11.7895 9.97408 11.3418 9.52637 10.7895 9.52637H9C8.44772 9.52637 8 9.97408 8 10.5264V14.579ZM9.26316 10.7895H10.5263V12.6843H9.26316V10.7895ZM9.26316 13.9474H10.5263V14.579C10.5263 14.9264 10.2421 15.2106 9.89474 15.2106C9.54737 15.2106 9.26316 14.9264 9.26316 14.579V13.9474Z" fill="#333333"/>
<path d="M19.1392 11.1305L18.5329 10.9284C18.2739 10.84 18.1034 10.6 18.1034 10.3284V7.63158C18.1034 7.28421 17.8192 7 17.4718 7H15.5771C15.2297 7 14.9455 7.28421 14.9455 7.63158V10.3347C14.9455 10.6063 14.775 10.8463 14.516 10.9347L13.9097 11.1368C13.3981 11.3137 13.0508 11.7937 13.0508 12.3368V18.3684C13.0508 19.0632 13.6192 19.6316 14.3139 19.6316H18.735C19.4297 19.6316 19.9981 19.0632 19.9981 18.3684V12.3305C19.9981 11.7874 19.6508 11.3074 19.1392 11.1305ZM16.2087 8.26316H16.8403V8.89474H16.2087V8.26316ZM18.735 18.3684H14.3139V17.1053H18.735V18.3684ZM18.735 15.8421H14.3139V14.5789H18.735V15.8421ZM18.735 13.3158H14.3139V12.3305L14.9139 12.1284C15.6908 11.8758 16.2087 11.1495 16.2087 10.3347V10.1579H16.8403V10.3347C16.8403 11.1495 17.3581 11.8758 18.135 12.1347L18.735 12.3305V13.3158Z" fill="#333333"/>
</svg>
