<svg width="28" height="28" viewBox="0 0 28 28" fill="none" xmlns="http://www.w3.org/2000/svg">
<circle cx="14" cy="14" r="14" fill="white"/>
<path d="M12.2467 9.67333C12.1267 10.1 12.0667 10.5467 12.0667 11C12.0667 13.72 14.28 15.9333 17 15.9333C17.4533 15.9333 17.9 15.8733 18.3267 15.7533C17.6333 17.46 15.9533 18.6667 14 18.6667C11.4267 18.6667 9.33333 16.5733 9.33333 14C9.33333 12.0467 10.54 10.3667 12.2467 9.67333ZM14 8C10.6867 8 8 10.6867 8 14C8 17.3133 10.6867 20 14 20C17.3133 20 20 17.3133 20 14C20 13.6728 19.5676 13.549 19.317 13.7594C18.6916 14.2845 17.8848 14.6 17 14.6C15.0133 14.6 13.4 12.9867 13.4 11C13.4 10.1198 13.7157 9.3105 14.2411 8.68344C14.4512 8.43267 14.3272 8 14 8Z" fill="#333333"/>
</svg>
