<svg width="72" height="72" viewBox="0 0 72 72" fill="none" xmlns="http://www.w3.org/2000/svg">
<rect width="72" height="72" rx="36" fill="#F9FAFA"/>
<path d="M48.8286 26.7368H45.216C45.3983 26.2147 45.5143 25.6421 45.5143 25.0526C45.5143 22.2568 43.2937 20 40.5429 20C38.8029 20 37.2949 20.9095 36.4 22.2737L35.5714 23.4021L34.7429 22.2568C33.848 20.9095 32.34 20 30.6 20C27.8491 20 25.6286 22.2568 25.6286 25.0526C25.6286 25.6421 25.7446 26.2147 25.9269 26.7368H22.3143C20.4749 26.7368 19.0166 28.2358 19.0166 30.1053L19 48.6316C19 50.5011 20.4749 52 22.3143 52H48.8286C50.668 52 52.1429 50.5011 52.1429 48.6316V30.1053C52.1429 28.2358 50.668 26.7368 48.8286 26.7368ZM40.5429 23.3684C41.4543 23.3684 42.2 24.1263 42.2 25.0526C42.2 25.9789 41.4543 26.7368 40.5429 26.7368C39.6314 26.7368 38.8857 25.9789 38.8857 25.0526C38.8857 24.1263 39.6314 23.3684 40.5429 23.3684ZM30.6 23.3684C31.5114 23.3684 32.2571 24.1263 32.2571 25.0526C32.2571 25.9789 31.5114 26.7368 30.6 26.7368C29.6886 26.7368 28.9429 25.9789 28.9429 25.0526C28.9429 24.1263 29.6886 23.3684 30.6 23.3684ZM48.8286 48.6316H22.3143V45.2632H48.8286V48.6316ZM48.8286 40.2105H22.3143V30.1053H30.7326L27.2857 34.8716L29.9703 36.8421L33.9143 31.3853L35.5714 29.0947L37.2286 31.3853L41.1726 36.8421L43.8571 34.8716L40.4103 30.1053H48.8286V40.2105Z" fill="#042E9A"/>
</svg>
