<svg width="28" height="28" viewBox="0 0 28 28" fill="none" xmlns="http://www.w3.org/2000/svg">
<circle cx="14" cy="14" r="14" fill="white"/>
<path d="M14.0013 11.3334C14.7377 11.3334 15.3346 10.7365 15.3346 10.0001C15.3346 9.2637 14.7377 8.66675 14.0013 8.66675C13.2649 8.66675 12.668 9.2637 12.668 10.0001C12.668 10.7365 13.2649 11.3334 14.0013 11.3334Z" fill="#333333"/>
<path d="M19.3345 16.6321C19.7006 16.6706 20 16.3682 20 16C20 15.6318 19.7001 15.3385 19.3352 15.2896C18.1255 15.1274 17.081 14.5193 16.2667 13.5467L15.3733 12.48C15.12 12.1733 14.7467 12 14.3533 12H13.6533C13.26 12 12.8867 12.1733 12.6333 12.48L11.74 13.5467C10.92 14.5193 9.87463 15.1274 8.66481 15.2896C8.29988 15.3385 8 15.6318 8 16C8 16.3682 8.29936 16.6706 8.66553 16.6321C10.2345 16.4672 11.6073 15.7174 12.6667 14.5V16L10.08 17.0333C9.63333 17.2133 9.33333 17.6533 9.33333 18.14C9.33333 18.8 9.86667 19.3333 10.5267 19.3333H12V19C12 18.08 12.7467 17.3333 13.6667 17.3333H15.6667C15.8533 17.3333 16 17.48 16 17.6667C16 17.8533 15.8533 18 15.6667 18H13.6667C13.1133 18 12.6667 18.4467 12.6667 19C12.6667 19.1841 12.8159 19.3333 13 19.3333H17.4733C18.1333 19.3333 18.6667 18.8 18.6667 18.14C18.6667 17.6533 18.3667 17.2133 17.92 17.0333L15.3333 16V14.5C16.3927 15.7174 17.7655 16.4672 19.3345 16.6321Z" fill="#333333"/>
</svg>
