<svg width="28" height="28" viewBox="0 0 28 28" fill="none" xmlns="http://www.w3.org/2000/svg">
<circle cx="14" cy="14" r="14" fill="white"/>
<path fill-rule="evenodd" clip-rule="evenodd" d="M9.33333 8.75H11.375C11.6958 8.75 11.9583 9.0125 11.9583 9.33333C11.9583 10.0625 12.075 10.7625 12.2908 11.4158C12.355 11.62 12.3083 11.8475 12.145 12.0108L10.8617 13.2942C11.7017 14.945 13.055 16.2925 14.7058 17.1383L15.9892 15.855C16.1058 15.7442 16.2517 15.6858 16.4033 15.6858C16.4617 15.6858 16.5258 15.6917 16.5842 15.715C17.2375 15.9308 17.9433 16.0475 18.6667 16.0475C18.9875 16.0475 19.25 16.31 19.25 16.6308V18.6667C19.25 18.9875 18.9875 19.25 18.6667 19.25C13.1892 19.25 8.75 14.8108 8.75 9.33333C8.75 9.0125 9.0125 8.75 9.33333 8.75ZM10.815 9.91666C10.85 10.4358 10.9375 10.9433 11.0775 11.4275L10.3775 12.1275C10.1383 11.4275 9.98667 10.6867 9.93417 9.91666H10.815ZM16.5667 16.9283C17.0625 17.0683 17.57 17.1558 18.0834 17.1908V18.06C17.3134 18.0075 16.5725 17.8558 15.8667 17.6225L16.5667 16.9283Z" fill="#333333"/>
</svg>
