<svg width="35" height="35" viewBox="0 0 35 35" fill="none" xmlns="http://www.w3.org/2000/svg">
<path d="M29.2379 21.0318C29.1934 20.9374 29.1411 20.8468 29.0816 20.7611L27.5062 18.0322L25.9308 20.7611C25.8713 20.8468 25.819 20.9374 25.7745 21.0318L25.6541 21.3582C25.6096 21.5204 25.5865 21.6876 25.5854 21.8558C25.5857 22.365 25.7882 22.8533 26.1484 23.2133C26.5086 23.5733 26.997 23.7756 27.5062 23.7756C28.0154 23.7756 28.5038 23.5733 28.864 23.2133C29.2242 22.8533 29.4267 22.365 29.4269 21.8558C29.4263 21.6877 29.4035 21.5204 29.3593 21.3582L29.2379 21.0318Z" fill="#042E9A"/>
<path d="M27.4688 14.195C27.2687 13.8697 26.9883 13.6012 26.6545 13.4154C26.3208 13.2297 25.9449 13.1328 25.5629 13.1341L16.5792 13.0595C16.6567 13.0336 16.7323 13.002 16.8051 12.965C17.0641 12.8355 17.282 12.6367 17.4347 12.3907C17.5874 12.1447 17.6688 11.8612 17.67 11.5717C17.6663 11.1525 17.4966 10.7519 17.1982 10.4575C16.8997 10.1632 16.4968 9.99911 16.0776 10.0012C15.9881 10.0012 14.4684 9.98033 12.8422 10.1107C10.9155 10.265 9.24754 11.9329 8.27124 13.156C8.08133 13.394 7.84031 13.5861 7.56605 13.7183C7.29178 13.8504 6.9913 13.9191 6.68687 13.9194H5.97033C5.71315 13.9194 5.4665 14.0215 5.28455 14.2032C5.10261 14.385 5.00026 14.6315 5 14.8887V20.8221C4.99987 20.9912 5.03305 21.1586 5.09766 21.3148C5.16227 21.4711 5.25704 21.6131 5.37654 21.7327C5.49605 21.8523 5.63795 21.9471 5.79414 22.0119C5.95032 22.0766 6.11773 22.1099 6.28679 22.1099H7.28698C7.50396 22.1096 7.71854 22.1552 7.91664 22.2437C8.11474 22.3322 8.29189 22.4616 8.43645 22.6234C8.7708 22.9918 9.14382 23.3231 9.54908 23.6117C10.9424 24.6188 12.5347 24.7402 14.2455 24.8248C15.8667 24.9054 16.8877 25.006 16.9216 25.006C17.7566 25.006 19.2334 25.3334 19.8664 24.3611C20.3262 23.6555 19.8753 22.8623 19.5041 22.6025C20.3799 22.4612 20.8218 21.879 20.9203 21.3476C20.982 20.9842 20.9127 20.6107 20.7249 20.2936C20.537 19.9765 20.2426 19.7363 19.8943 19.6159C20.6138 19.3791 21.1283 18.7521 21.1283 18.0146C21.1283 17.318 20.6725 16.7209 20.0196 16.4581H25.5928C25.6565 16.4641 26.2277 16.4173 26.2277 16.4173C26.307 16.3993 26.3851 16.3763 26.4616 16.3487C27.1413 16.1048 27.6559 15.4848 27.6559 14.7633C27.645 14.5606 27.5804 14.3645 27.4688 14.195V14.195ZM17.1186 18.8028H14.5729V21.3476H13.0333V18.8028H10.4876V17.2632H13.0333V14.7175H14.5729V17.2632H17.1186V18.8028Z" fill="#042E9A"/>
</svg>
