<svg width="24" height="24" viewBox="0 0 24 24" fill="none" xmlns="http://www.w3.org/2000/svg">
<style type="text/css">
.color {fill: var(--icon-color);}
</style>
<path fill-rule="evenodd" clip-rule="evenodd" d="M18 4H19C20.1 4 21 4.9 21 6V20C21 21.1 20.1 22 19 22H5C3.89 22 3 21.1 3 20L3.01 6C3.01 4.9 3.89 4 5 4H6V3C6 2.44772 6.44772 2 7 2C7.55228 2 8 2.44772 8 3V4H16V3C16 2.44772 16.4477 2 17 2C17.5523 2 18 2.44772 18 3V4ZM18 20C18.5523 20 19 19.5523 19 19V10H5V19C5 19.5523 5.44772 20 6 20H18ZM19 8H5V7C5 6.44772 5.44772 6 6 6H18C18.5523 6 19 6.44772 19 7V8ZM13 13C12.4477 13 12 13.4477 12 14V17C12 17.5523 12.4477 18 13 18H16C16.5523 18 17 17.5523 17 17V14C17 13.4477 16.5523 13 16 13H13Z" class="color"/>
</svg>
