<svg width="35" height="35" viewBox="0 0 35 35" fill="none" xmlns="http://www.w3.org/2000/svg">
<path d="M25.6404 18.5623C25.0385 16.9895 24.0599 15.5884 22.7902 14.482C21.5391 13.4357 20.7167 11.9655 20.48 10.3517C20.4468 9.51969 20.5689 8.68877 20.8401 7.90151C20.8785 7.79566 20.8988 7.68408 20.9001 7.57148C20.9001 7.05144 20.27 6.92143 19.77 7.04144C16.7697 7.7615 12.7694 14.372 12.7694 14.372C12.7933 14.263 12.78 14.1491 12.7316 14.0485C12.6832 13.9479 12.6026 13.8663 12.5025 13.8169C12.4024 13.7674 12.2887 13.7529 12.1794 13.7755C12.0701 13.7982 11.9715 13.8568 11.8994 13.942C10.7823 15.4159 10.1248 17.1866 10.0092 19.0324C9.92094 20.877 10.4688 22.696 11.561 24.1851C12.6533 25.6742 14.2237 26.7431 16.0097 27.213C17.2074 27.543 18.4625 27.6093 19.6884 27.4073C20.9142 27.2053 22.0817 26.7398 23.1102 26.0429C24.2434 25.2019 25.0928 24.035 25.545 22.6983C25.9971 21.3615 26.0304 19.9185 25.6404 18.5623Z" fill="#042E9A"/>
<path d="M18.0471 20.2302C17.7466 21.0204 17.2065 21.7162 16.4898 22.2367C15.7731 22.7572 14.9093 23.0809 13.999 23.17C18.1244 26.9485 22.6943 24.2647 22.9841 20.6628C23.2933 17.776 18.9167 15.7014 18.6944 13C16.994 16.0722 18.7814 18.2439 18.0471 20.2302Z" fill="white"/>
</svg>
