<svg width="35" height="35" viewBox="0 0 35 35" fill="none" xmlns="http://www.w3.org/2000/svg">
<path d="M20.4152 16.7362C19.1786 15.4968 18.4973 13.8479 18.4973 12.0939C18.4973 11.6737 18.5371 11.2628 18.6128 10.8643C17.2562 10.9178 15.8972 11.4678 14.7476 12.6173C13.54 11.4098 12.1509 10.8623 10.6509 10.8623C9.14046 10.8623 7.72048 11.4501 6.65293 12.5175C4.44902 14.7213 4.44902 18.3069 6.65293 20.5111L14.2266 28.0836C14.5156 28.3725 14.9815 28.3716 15.2696 28.0836L22.8422 20.5116C23.3952 19.9592 23.8218 19.3081 24.1039 18.594C22.7105 18.391 21.4257 17.7491 20.4152 16.7362V16.7362ZM19.8391 19.4688H17.5703L16.1105 22.2303C15.8153 22.79 14.9987 22.7397 14.7712 22.1516L12.9078 17.3343L11.9764 19.0785C11.8482 19.3189 11.598 19.4688 11.3262 19.4688H9.17781C8.77034 19.4688 8.44057 19.1385 8.44057 18.7316C8.44057 18.3241 8.77039 17.9944 9.17781 17.9944H10.8838L12.3647 15.2206C12.6617 14.6664 13.4751 14.7141 13.7031 15.3022L15.563 20.1111L16.4743 18.3871C16.6021 18.1453 16.8527 17.9944 17.126 17.9944H19.8391C20.2466 17.9944 20.5763 18.3241 20.5763 18.7316C20.5764 19.1385 20.2466 19.4688 19.8391 19.4688Z" fill="#042E9A"/>
<path d="M25.7712 12.1155C25.7712 12.5121 25.4482 12.835 25.0511 12.835C24.6539 12.835 24.3311 12.5121 24.3311 12.1155C24.3311 11.7184 24.654 11.3955 25.0511 11.3955C25.4483 11.3955 25.7712 11.7184 25.7712 12.1155Z" fill="#042E9A"/>
<path d="M25.071 7C22.2886 7 19.9756 9.25187 19.9756 12.0945C19.9756 14.9042 22.2434 17.1894 25.071 17.1894C27.881 17.1894 30.1665 14.9042 30.1665 12.0945C30.1665 9.28529 27.881 7 25.071 7V7ZM27.4627 10.7459L27.0332 11.1754C27.1688 11.4605 27.245 11.7795 27.245 12.1156C27.245 13.3251 26.2605 14.3095 25.0504 14.3095C23.8403 14.3095 22.8558 13.3251 22.8558 12.1156C22.8558 10.9056 23.8403 9.92124 25.0504 9.92124C25.3866 9.92124 25.705 9.99742 25.9901 10.1331L26.4197 9.70352C26.7078 9.41553 27.1746 9.41553 27.4627 9.70352C27.7507 9.99152 27.7507 10.4579 27.4627 10.7459V10.7459Z" fill="#042E9A"/>
</svg>
