<svg width="22" height="21" viewBox="0 0 22 21" fill="none" xmlns="http://www.w3.org/2000/svg">
<style type="text/css">
.color {fill: var(--ion-color-base);}
</style>
<path d="M21.2518 15.4574L13.6545 2.29835C12.4136 0.124509 9.27561 0.124509 8.03916 2.29835L0.437414 15.4574C-0.803505 17.6313 0.740948 20.3318 3.2451 20.3318H18.4173C20.9215 20.3318 22.4927 17.6045 21.2518 15.4574ZM10.8424 17.4126C10.1818 17.4126 9.63271 16.8635 9.63271 16.2029C9.63271 15.5422 10.1818 14.9932 10.8424 14.9932C11.503 14.9932 12.0521 15.5423 12.0253 16.2341C12.0565 16.8635 11.4762 17.4126 10.8424 17.4126ZM11.9449 9.59209C11.8914 10.5295 11.8333 11.4624 11.7798 12.3998C11.753 12.7033 11.753 12.9801 11.753 13.2791C11.7262 13.7746 11.3379 14.1585 10.8424 14.1585C10.3469 14.1585 9.96303 13.8014 9.93178 13.3059C9.85143 11.8463 9.76662 10.4134 9.68628 8.95378C9.65949 8.5699 9.63271 8.18155 9.60147 7.79767C9.60147 7.16382 9.95856 6.64156 10.5388 6.4764C11.1191 6.33803 11.695 6.61478 11.9449 7.16382C12.0297 7.35576 12.0565 7.5477 12.0565 7.77089C12.0297 8.38242 11.9717 8.98949 11.9449 9.59209Z" class="color"/>
</svg>
