<svg width="20" height="20" viewBox="0 0 20 20" fill="none" xmlns="http://www.w3.org/2000/svg">
<path fill-rule="evenodd" clip-rule="evenodd" d="M2.26223 3.79134C1.93747 3.46658 1.93654 2.94033 2.26015 2.61443C2.58544 2.28683 3.11504 2.28597 3.4414 2.61251L17.0376 16.2163C17.3619 16.5409 17.3618 17.0669 17.0374 17.3913C16.7129 17.7158 16.1867 17.7158 15.8622 17.3913L13.5998 15.1289C12.4831 15.5706 11.2665 15.8123 9.99981 15.8123C6.11136 15.8123 2.75272 13.5551 1.1498 10.2804C0.927977 9.82719 0.927043 9.29702 1.14843 8.84363C1.80154 7.50607 2.75226 6.34494 3.90814 5.43725L2.26223 3.79134ZM9.99983 4.97891C12.8275 4.97891 15.3813 6.40168 16.8718 8.71496C17.2045 9.23141 17.2066 9.89405 16.8734 10.4102C16.4459 11.0723 15.9273 11.6593 15.3415 12.1622L16.5165 13.3372C17.4813 12.4835 18.2784 11.4505 18.8501 10.2817C19.0721 9.82782 19.0715 9.29686 18.8493 8.84307C17.2462 5.56887 13.8879 3.31225 9.99983 3.31225C8.9415 3.31225 7.92483 3.47891 6.9665 3.78725L8.3415 5.16225C8.88316 5.05391 9.43317 4.97891 9.99983 4.97891ZM9.10811 5.92891L10.8331 7.65391C11.3081 7.86225 11.6914 8.24558 11.8998 8.72058L13.6248 10.4456C13.6914 10.1622 13.7414 9.86225 13.7414 9.55391C13.7498 7.48725 12.0664 5.81225 9.99978 5.81225C9.69145 5.81225 9.39978 5.85391 9.10811 5.92891ZM7.92481 9.45394L10.0998 11.6289C10.0665 11.6373 10.0331 11.6456 9.99981 11.6456C8.84981 11.6456 7.91648 10.7123 7.91648 9.56227C7.91648 9.54144 7.91856 9.52477 7.92064 9.5081C7.92273 9.49144 7.92481 9.47477 7.92481 9.45394ZM6.54978 8.07892L5.09145 6.62058C4.33404 7.19647 3.66596 7.8946 3.13314 8.71144C2.79565 9.22883 2.79609 9.89549 3.13104 10.4145C4.62201 12.7249 7.17416 14.1456 9.99978 14.1456C10.7914 14.1456 11.5581 14.0289 12.2914 13.8289L11.4748 13.0123C11.0248 13.2039 10.5248 13.3123 9.99978 13.3123C7.93311 13.3123 6.24978 11.6289 6.24978 9.56225C6.24978 9.03725 6.35811 8.53725 6.54978 8.07892Z" fill="#BEBEBE"/>
</svg>
