<svg width="28" height="28" viewBox="0 0 28 28" fill="none" xmlns="http://www.w3.org/2000/svg">
<circle cx="14" cy="14" r="14" fill="white"/>
<path fill-rule="evenodd" clip-rule="evenodd" d="M9.91667 8.75H18.0833C18.725 8.75 19.25 9.275 19.25 9.91667V18.0833C19.25 18.725 18.725 19.25 18.0833 19.25H9.91667C9.275 19.25 8.75 18.725 8.75 18.0833V9.91667C8.75 9.275 9.275 8.75 9.91667 8.75ZM17.0833 18.0833C17.6356 18.0833 18.0833 17.6356 18.0833 17.0833V10.9167C18.0833 10.3644 17.6356 9.91667 17.0833 9.91667H10.9167C10.3644 9.91667 9.91667 10.3644 9.91667 10.9167V17.0833C9.91667 17.6356 10.3644 18.0833 10.9167 18.0833H17.0833Z" fill="#333333"/>
<path d="M16.9154 14.0025C16.9154 13.682 16.6557 13.4221 16.3352 13.4218L11.6657 13.4171C11.3434 13.4168 11.082 13.6779 11.082 14.0001C11.082 14.3221 11.3431 14.5832 11.6651 14.5832H16.3347C16.6554 14.5832 16.9154 14.3232 16.9154 14.0025Z" fill="#333333"/>
<path d="M11.082 16.3333C11.082 16.0112 11.3432 15.75 11.6654 15.75H14.3876C14.7098 15.75 14.9709 16.0112 14.9709 16.3333C14.9709 16.6555 14.7098 16.9167 14.3876 16.9167H11.6654C11.3432 16.9167 11.082 16.6555 11.082 16.3333Z" fill="#333333"/>
<path d="M16.9154 11.6671C16.9154 11.3448 16.6541 11.0835 16.3317 11.0835H11.668C11.3444 11.0835 11.082 11.3458 11.082 11.6695C11.082 11.9933 11.3447 12.2557 11.6686 12.2554L16.3323 12.2507C16.6544 12.2504 16.9154 11.9892 16.9154 11.6671Z" fill="#333333"/>
</svg>
