<svg width="35" height="35" viewBox="0 0 35 35" fill="none" xmlns="http://www.w3.org/2000/svg">
<path d="M6.06739 13.212H8.97139C9.30872 13.212 9.64606 13.2377 9.98339 13.289C10.3281 13.333 10.6361 13.4283 10.9074 13.575C11.1787 13.7143 11.3987 13.9123 11.5674 14.169C11.7361 14.4257 11.8204 14.7667 11.8204 15.192C11.8204 15.632 11.6957 15.9987 11.4464 16.292C11.2044 16.578 10.8817 16.7833 10.4784 16.908V16.93C10.7351 16.9667 10.9661 17.04 11.1714 17.15C11.3841 17.2527 11.5637 17.3883 11.7104 17.557C11.8644 17.7183 11.9817 17.909 12.0624 18.129C12.1431 18.349 12.1834 18.5837 12.1834 18.833C12.1834 19.2437 12.0954 19.5883 11.9194 19.867C11.7434 20.1383 11.5161 20.3583 11.2374 20.527C10.9587 20.6957 10.6434 20.8167 10.2914 20.89C9.94672 20.9633 9.60206 21 9.25739 21H6.06739V13.212ZM7.78339 16.325H9.02639C9.15839 16.325 9.28672 16.3103 9.41139 16.281C9.54339 16.2517 9.66072 16.204 9.76339 16.138C9.86606 16.072 9.94672 15.984 10.0054 15.874C10.0714 15.764 10.1044 15.632 10.1044 15.478C10.1044 15.3167 10.0677 15.1847 9.99439 15.082C9.92839 14.972 9.84039 14.8877 9.73039 14.829C9.62039 14.7703 9.49572 14.73 9.35639 14.708C9.21706 14.6787 9.08139 14.664 8.94939 14.664H7.78339V16.325ZM7.78339 19.548H9.32339C9.45539 19.548 9.58739 19.5333 9.71939 19.504C9.85872 19.4747 9.98339 19.4233 10.0934 19.35C10.2034 19.2767 10.2914 19.1813 10.3574 19.064C10.4307 18.9467 10.4674 18.8037 10.4674 18.635C10.4674 18.4517 10.4197 18.305 10.3244 18.195C10.2364 18.0777 10.1227 17.9897 9.98339 17.931C9.84406 17.8723 9.69372 17.832 9.53239 17.81C9.37106 17.788 9.22072 17.777 9.08139 17.777H7.78339V19.548ZM13.2002 13.212H16.0932C16.4965 13.212 16.8779 13.2487 17.2372 13.322C17.5965 13.3953 17.9082 13.5237 18.1722 13.707C18.4435 13.883 18.6562 14.125 18.8102 14.433C18.9715 14.7337 19.0522 15.115 19.0522 15.577C19.0522 16.0317 18.9789 16.413 18.8322 16.721C18.6855 17.029 18.4839 17.2747 18.2272 17.458C17.9705 17.6413 17.6662 17.7733 17.3142 17.854C16.9622 17.9273 16.5809 17.964 16.1702 17.964H14.9162V21H13.2002V13.212ZM14.9162 16.512H16.0602C16.2142 16.512 16.3609 16.4973 16.5002 16.468C16.6469 16.4387 16.7752 16.391 16.8852 16.325C17.0025 16.2517 17.0942 16.1563 17.1602 16.039C17.2335 15.9143 17.2702 15.7603 17.2702 15.577C17.2702 15.379 17.2225 15.2213 17.1272 15.104C17.0392 14.9793 16.9219 14.884 16.7752 14.818C16.6359 14.752 16.4782 14.7117 16.3022 14.697C16.1262 14.675 15.9575 14.664 15.7962 14.664H14.9162V16.512ZM20.1289 13.212H22.7249L24.5179 18.294H24.5399L26.3439 13.212H28.9289V21H27.2129V15.027H27.1909L25.1449 21H23.8359L21.8669 15.027H21.8449V21H20.1289V13.212Z" fill="#042E9A"/>
</svg>
