<svg width="35" height="35" viewBox="0 0 35 35" fill="none" xmlns="http://www.w3.org/2000/svg">
<path d="M23.4111 20.6135L24.1165 21.3239C24.3115 21.5204 24.6291 21.5209 24.8248 21.3252L28.6052 17.5448C28.801 17.3491 28.8004 17.0315 28.604 16.8365L27.8936 16.1311C27.6981 15.937 27.3825 15.9375 27.1877 16.1323L23.4123 19.9077C23.2175 20.1025 23.217 20.4181 23.4111 20.6135Z" fill="#042E9A"/>
<path d="M23.6569 15.4331L21.2998 17.7902C21.1021 17.9879 21.1049 18.3092 21.306 18.5034L22.0466 19.2187C22.2428 19.4081 22.5546 19.4054 22.7475 19.2126L26.5265 15.4336C26.7217 15.2383 26.7217 14.9217 26.5265 14.7264L20.1524 8.35237C19.9576 8.15757 19.6419 8.15704 19.4465 8.35119L15.6509 12.1215C15.4565 12.3146 15.4537 12.6282 15.6447 12.8247L16.3271 13.5269C16.5213 13.7267 16.8413 13.7292 17.0386 13.5325L19.406 11.1728C19.6016 10.9779 19.918 10.9784 20.113 11.1738L23.6573 14.7264C23.8522 14.9218 23.852 15.238 23.6569 15.4331Z" fill="#042E9A"/>
<path d="M20.9378 20.962L17.3146 17.3803C17.1109 17.179 16.7802 17.1895 16.5897 17.4033L15.31 18.84C15.2177 18.9342 15.0919 18.9881 14.96 18.99C14.8946 18.9896 14.83 18.9761 14.7698 18.9504C14.7097 18.9246 14.6554 18.8871 14.61 18.84L13.4958 17.7193C13.2316 17.4535 12.7704 17.5734 12.6142 17.914C12.524 18.1105 12.5552 18.3452 12.708 18.498L13.85 19.64C13.8969 19.6865 13.9341 19.7418 13.9595 19.8027C13.9848 19.8636 13.9979 19.929 13.9979 19.995C13.9979 20.061 13.9848 20.1264 13.9595 20.1873C13.9341 20.2482 13.8969 20.3035 13.85 20.35C13.7549 20.4401 13.6308 20.4933 13.5 20.5C13.4346 20.4996 13.37 20.4862 13.3098 20.4604C13.2497 20.4346 13.1954 20.3971 13.15 20.35L12.2689 19.4689C12.0604 19.2604 11.7185 19.2779 11.5142 19.4905L11.4919 19.5136C11.2919 19.7199 11.2811 20.0511 11.4843 20.2543L12.39 21.16C12.4369 21.2065 12.4741 21.2618 12.4995 21.3227C12.5248 21.3836 12.5379 21.449 12.5379 21.515C12.5379 21.581 12.5248 21.6464 12.4995 21.7073C12.4741 21.7682 12.4369 21.8235 12.39 21.87C12.2946 21.9657 12.1651 22.0197 12.03 22.02C11.9644 22.0208 11.8994 22.0079 11.8391 21.982C11.7789 21.9562 11.7247 21.918 11.68 21.87L10.5842 20.7663C10.4184 20.5992 10.1591 20.5716 9.95607 20.6908C9.42799 21.0009 8.87393 21.265 8.30001 21.48C7.91721 21.623 7.5874 21.8799 7.35498 22.216C7.12256 22.5521 6.99868 22.9514 7.00001 23.36V25.5C7.00001 25.7761 7.22387 26 7.50001 26H16.2966C16.427 26 16.5523 25.949 16.6457 25.858L20.9354 21.6755C21.1357 21.4803 21.1368 21.1586 20.9378 20.962Z" fill="#042E9A"/>
</svg>
