<svg width="20" height="20" viewBox="0 0 20 20" fill="none" xmlns="http://www.w3.org/2000/svg">
<g id="visibility_24px">
<path id="icon/action/visibility_24px" fill-rule="evenodd" clip-rule="evenodd" d="M1.52628 8.58576C3.24319 5.69153 6.39384 3.75 10.0002 3.75C13.8875 3.75 17.2453 6.00579 18.8488 9.279C19.0716 9.73383 19.0716 10.2662 18.8488 10.721C17.2453 13.9942 13.8875 16.25 10.0002 16.25C6.39384 16.25 3.24319 14.3085 1.52628 11.4142C1.00947 10.543 1.00947 9.45697 1.52628 8.58576ZM16.8691 9.14773C15.3781 6.83744 12.826 5.41675 10.0004 5.41675C7.17481 5.41675 4.62269 6.83744 3.13171 9.14773C2.79671 9.66681 2.79671 10.3334 3.13171 10.8524C4.62269 13.1627 7.17481 14.5834 10.0004 14.5834C12.826 14.5834 15.3781 13.1627 16.8691 10.8524C17.2041 10.3334 17.2041 9.66681 16.8691 9.14773ZM10.0002 7.91667C11.1502 7.91667 12.0835 8.85 12.0835 10C12.0835 11.15 11.1502 12.0833 10.0002 12.0833C8.85021 12.0833 7.91688 11.15 7.91688 10C7.91688 8.85 8.85021 7.91667 10.0002 7.91667ZM6.25021 10C6.25021 7.93333 7.93354 6.25 10.0002 6.25C12.0669 6.25 13.7502 7.93333 13.7502 10C13.7502 12.0667 12.0669 13.75 10.0002 13.75C7.93354 13.75 6.25021 12.0667 6.25021 10Z" fill="#BEBEBE"/>
</g>
</svg>
