<svg width="60" height="60" viewBox="0 0 60 60" fill="none" xmlns="http://www.w3.org/2000/svg">
<style type="text/css">
.color {fill: var(--ion-color-base);}
</style>
<rect width="60" height="60" rx="30" fill="#F9FAFA"/>
<path fill-rule="evenodd" clip-rule="evenodd" d="M35.8082 18.3624C35.8743 18.2962 35.9817 18.2962 36.0479 18.3624L41.7798 24.0943C41.846 24.1605 41.846 24.2678 41.7798 24.334L33.1434 32.9704C32.7064 33.4074 32.4044 33.9609 32.2734 34.5648L31.9034 36.2702L23.872 28.2388L25.5773 27.8688C26.1813 27.7378 26.7348 27.4358 27.1718 26.9988L35.8082 18.3624ZM38.2051 16.2051C36.9475 14.9475 34.9085 14.9475 33.6509 16.2051L25.0145 24.8415C24.9915 24.8645 24.9623 24.8804 24.9306 24.8873L20.4932 25.8499C19.9478 25.9683 19.5105 26.375 19.3531 26.9105C19.1957 27.446 19.3433 28.0247 19.738 28.4193L24.653 33.3343L18.1829 39.8044L17.9456 42.2L20.3402 41.9617L26.8103 35.4916L31.7229 40.4042C32.1175 40.7989 32.6962 40.9465 33.2317 40.7891C33.7672 40.6317 34.1739 40.1944 34.2923 39.649L35.2549 35.2116C35.2618 35.1798 35.2777 35.1507 35.3007 35.1277L43.937 26.4913C45.1947 25.2337 45.1947 23.1947 43.9371 21.9371L38.2051 16.2051Z" class="color" />
</svg>
