<svg width="24" height="24" viewBox="0 0 24 24" fill="none" xmlns="http://www.w3.org/2000/svg">
<style type="text/css">
.color {fill: var(--icon-color);}
</style>
<path fill-rule="evenodd" clip-rule="evenodd" d="M19 3H5C3.9 3 3 3.9 3 5V19C3 20.1 3.9 21 5 21H19C20.1 21 21 20.1 21 19V5C21 3.9 20.1 3 19 3ZM19 18C19 18.5523 18.5523 19 18 19H6C5.44772 19 5 18.5523 5 18V6C5 5.44772 5.44772 5 6 5H18C18.5523 5 19 5.44772 19 6V18ZM17.2875 8.29251C17.6759 8.68365 17.6748 9.31524 17.285 9.705L9.99 17L6.70202 13.7202C6.30934 13.3285 6.31006 12.6922 6.70364 12.3014C7.09438 11.9134 7.72512 11.9139 8.11524 12.3025L9.99 14.17L15.87 8.29C16.2617 7.89829 16.8972 7.89941 17.2875 8.29251Z" class="color"/>
</svg>
