<svg width="24" height="24" viewBox="0 0 24 24" fill="none" xmlns="http://www.w3.org/2000/svg">
<style type="text/css">
.color {fill: var(--icon-color);}
</style>
<path d="M19 7H21C21.5523 7 22 6.55228 22 6C22 5.44772 21.5523 5 21 5H19V3C19 2.44772 18.5523 2 18 2C17.4477 2 17 2.44772 17 3V5H15C14.4477 5 14 5.44772 14 6C14 6.55228 14.4477 7 15 7H17V9C17 9.55228 17.4477 10 18 10C18.5523 10 19 9.55228 19 9V7Z" class="color"/>
<path d="M17 12.0045C17 11.4551 16.5549 11.0096 16.0055 11.009L8.0005 11.001C7.4481 11.0004 7 11.4481 7 12.0005C7 12.5525 7.44749 13 7.9995 13H16.0045C16.5543 13 17 12.5543 17 12.0045Z" class="color"/>
<path d="M7 16C7 15.4477 7.44772 15 8 15H16C16.5523 15 17 15.4477 17 16C17 16.5523 16.5523 17 16 17H8C7.44772 17 7 16.5523 7 16Z" class="color"/>
<path d="M19 18C19 18.5523 18.5523 19 18 19H6C5.44772 19 5 18.5523 5 18V6C5 5.44772 5.44772 5 6 5H11C11.5523 5 12 4.55228 12 4C12 3.44772 11.5523 3 11 3H5C3.9 3 3 3.9 3 5V19C3 20.1 3.9 21 5 21H19C20.1 21 21 20.1 21 19V13C21 12.4477 20.5523 12 20 12C19.4477 12 19 12.4477 19 13V18Z" class="color"/>
</svg>
